<?xml version="1.0" standalone="no"?>
<!DOCTYPE svg PUBLIC "-//W3C//DTD SVG 20010904//EN"
 "http://www.w3.org/TR/2001/REC-SVG-20010904/DTD/svg10.dtd">
<svg version="1.0" xmlns="http://www.w3.org/2000/svg"
 width="775.000000pt" height="800.000000pt" viewBox="0 0 775.000000 800.000000"
 preserveAspectRatio="xMidYMid meet">

<g transform="translate(0.000000,800.000000) scale(0.100000,-0.100000)"
fill="#000000" stroke="none">
<path d="M1720 7993 c-179 -30 -336 -162 -403 -340 -22 -57 -22 -70 -27 -642
l-5 -583 -90 -23 c-251 -64 -464 -186 -649 -371 -251 -250 -395 -569 -413
-914 l-6 -125 -43 -43 c-30 -29 -49 -60 -61 -98 -16 -53 -16 -66 5 -342 25
-312 41 -412 101 -596 56 -171 71 -262 81 -496 37 -786 127 -1488 285 -2216
83 -378 216 -887 252 -958 33 -65 113 -149 178 -186 109 -62 62 -60 1265 -60
1195 0 1154 -2 1262 57 63 34 150 127 183 194 15 30 64 196 110 369 46 173 84
306 85 295 0 -11 9 -153 19 -315 16 -248 23 -304 41 -353 30 -80 112 -167 198
-209 l67 -33 1119 -3 c1002 -2 1125 -1 1175 14 132 37 234 139 270 269 8 30
341 5330 341 5432 0 13 18 25 58 41 151 58 341 212 441 357 69 100 127 224
158 343 23 84 26 117 26 252 0 135 -3 168 -26 252 -106 400 -416 687 -823 764
-115 21 -314 15 -426 -15 -223 -58 -415 -182 -554 -355 -153 -191 -225 -401
-225 -653 l0 -123 -972 -2 -972 -3 -57 -28 c-93 -46 -178 -160 -178 -239 0
-24 -11 -23 -69 7 -84 42 -202 82 -323 109 l-28 6 0 568 c0 491 -2 576 -16
623 -54 184 -210 330 -392 368 -50 10 -902 14 -962 4z m955 -272 c87 -39 155
-131 155 -209 l0 -32 -642 2 -643 3 3 33 c9 82 67 161 147 198 l50 24 445 0
c409 0 448 -2 485 -19z m4260 -269 c147 -48 242 -109 348 -222 162 -172 235
-417 194 -650 -36 -210 -157 -399 -329 -513 -31 -20 -59 -37 -63 -37 -3 0 -3
60 1 133 5 108 4 143 -10 189 -23 79 -79 146 -157 188 l-64 35 -452 3 -451 3
-8 65 c-17 166 32 352 134 500 40 59 140 161 198 201 59 42 174 93 251 113
104 26 316 22 408 -8z m-4105 -352 l0 -130 -645 0 -645 0 0 123 c0 68 3 127 7
130 3 4 294 7 645 7 l638 0 0 -130z m0 -520 l0 -130 -642 2 -643 3 -3 128 -3
127 646 0 645 0 0 -130z m3986 -281 c18 -20 18 -29 -5 -402 -12 -210 -25 -403
-28 -429 l-6 -48 -612 0 -613 0 -70 178 c-38 97 -91 233 -117 302 -64 164
-108 205 -194 180 -16 -4 -247 -93 -512 -197 -350 -136 -490 -195 -509 -215
-41 -41 -45 -83 -15 -165 14 -39 25 -73 25 -77 0 -3 -79 -6 -175 -6 -162 0
-175 1 -175 18 0 10 -11 198 -25 418 -14 219 -25 405 -25 412 0 6 9 21 20 32
20 20 33 20 1518 20 l1499 0 19 -21z m-3706 -137 c133 -36 317 -120 388 -179
21 -17 23 -33 47 -418 13 -220 27 -430 30 -468 l5 -67 -1597 2 -1597 3 3 70
c6 158 64 355 147 500 184 317 480 517 854 579 14 2 387 3 830 2 801 -2 805
-2 890 -24z m2162 -732 c76 -195 135 -357 131 -361 -10 -8 -684 -271 -701
-273 -13 -1 -296 704 -286 713 9 10 699 279 708 277 5 -1 71 -161 148 -356z
m-947 -417 c163 -420 184 -468 211 -490 42 -33 77 -35 155 -8 38 13 69 21 69
18 0 -3 -94 -171 -210 -372 -192 -335 -210 -370 -210 -414 0 -37 6 -53 28 -76
15 -16 196 -127 402 -246 206 -119 379 -220 384 -225 6 -6 -3 -182 -23 -442
-17 -238 -31 -450 -31 -470 0 -21 -5 -38 -10 -38 -6 0 -64 16 -129 35 -65 19
-132 35 -150 35 -45 0 -88 -25 -106 -61 -9 -17 -84 -260 -166 -541 -136 -467
-148 -514 -139 -549 14 -51 46 -74 149 -107 l86 -27 -274 -3 c-151 -1 -276 -1
-278 1 -3 4 -253 4045 -253 4100 l0 27 219 0 219 0 57 -147z m2441 95 c-3 -29
-60 -948 -126 -2043 -67 -1094 -123 -2000 -126 -2012 l-4 -23 -410 0 c-336 0
-410 2 -410 13 0 8 54 197 120 422 66 225 120 426 120 448 0 32 -7 46 -37 76
-33 32 -56 42 -178 76 -95 27 -130 41 -110 43 17 1 170 -8 340 -21 179 -14
325 -20 345 -16 48 11 87 59 94 118 3 25 22 273 42 551 36 499 37 505 18 539
-36 66 -42 67 -454 97 -206 15 -376 28 -378 29 -1 1 85 155 193 341 177 307
195 343 195 385 0 31 -7 55 -20 72 -11 14 -198 128 -415 253 -217 125 -395
230 -395 233 0 3 102 46 228 95 125 49 237 95 250 103 31 19 62 72 62 104 0
15 -11 57 -25 93 -14 37 -25 69 -25 71 0 3 250 5 556 5 l556 0 -6 -52z m-3089
-1683 c51 -825 82 -1382 79 -1450 -7 -207 -154 -909 -306 -1462 -45 -164 -68
-204 -134 -234 -39 -18 -88 -19 -1125 -19 -1082 0 -1085 0 -1128 21 -74 36
-87 63 -157 325 -257 963 -391 1820 -436 2784 -13 272 -35 409 -95 599 -25 79
-52 183 -60 230 -13 79 -45 444 -45 519 l0 32 1662 -2 1663 -3 82 -1340z
m1703 841 c168 -97 306 -181 308 -186 3 -7 -259 -471 -359 -636 l-19 -32 -332
192 c-182 105 -332 194 -332 197 -1 4 85 155 189 337 l190 330 25 -13 c14 -7
162 -92 330 -189z m483 -1138 c315 -21 327 -23 327 -43 0 -40 -51 -730 -55
-742 -3 -9 -18 -11 -47 -8 -24 3 -195 17 -382 30 -186 13 -339 25 -340 27 -2
2 9 166 24 365 26 355 27 363 51 383 17 14 34 19 59 15 19 -2 182 -14 363 -27z
m-568 -1209 c187 -55 341 -102 344 -104 8 -9 -213 -743 -223 -739 -6 2 -173
51 -370 109 -198 58 -360 106 -361 108 -1 2 136 475 195 670 20 66 22 69 48
62 15 -4 180 -51 367 -106z m1200 -1226 c-3 -43 -10 -137 -14 -209 -6 -98 -13
-139 -27 -163 -38 -64 27 -61 -1161 -61 -1064 0 -1078 0 -1111 20 -18 11 -39
35 -46 53 -11 26 -36 321 -36 415 l0 22 1200 0 1200 0 -5 -77z"/>
<path d="M6649 7333 c-53 -33 -59 -57 -59 -235 0 -180 5 -199 59 -235 59 -40
139 -22 176 40 16 26 21 55 23 160 5 175 -1 213 -45 254 -29 28 -42 33 -81 33
-26 0 -59 -8 -73 -17z"/>
<path d="M6155 7086 c-58 -26 -90 -84 -79 -145 10 -53 174 -216 227 -226 106
-20 191 89 143 183 -25 49 -179 188 -215 195 -42 9 -40 9 -76 -7z"/>
<path d="M7185 7086 c-16 -8 -69 -54 -117 -103 -87 -89 -88 -91 -88 -141 0
-62 32 -106 89 -123 62 -18 96 0 199 105 88 89 92 95 92 137 0 56 -30 106 -75
125 -42 17 -61 17 -100 0z"/>
<path d="M945 3641 c-27 -12 -62 -50 -74 -83 -6 -15 -8 -63 -6 -105 3 -43 10
-163 15 -268 26 -476 116 -1240 155 -1315 41 -80 177 -79 221 2 19 33 17 73
-11 268 -54 369 -93 782 -115 1204 -12 222 -19 252 -65 282 -29 19 -92 27
-120 15z"/>
<path d="M1233 1401 c-38 -24 -63 -68 -63 -110 0 -30 74 -364 111 -503 17 -62
28 -84 55 -108 72 -63 183 -26 207 70 4 15 -15 117 -48 260 -31 129 -60 257
-67 284 -23 103 -118 155 -195 107z"/>
</g>
</svg>
